<svg width="128" height="128" viewBox="0 0 128 128" fill="none" xmlns="http://www.w3.org/2000/svg">
<rect width="128" height="128" fill="#F2F2F2"/>
<path d="M48 48C48 53.5228 42.5228 58 36 58C29.4772 58 24 53.5228 24 48C24 42.4772 29.4772 38 36 38C42.5228 38 48 42.4772 48 48Z" stroke="#333333" stroke-width="2"/>
<path d="M36 58V90" stroke="#333333" stroke-width="2"/>
<ellipse cx="36" cy="90" rx="12" ry="4" stroke="#333333" stroke-width="2"/>
<path d="M52 68L76 68" stroke="#333333" stroke-width="2" stroke-linecap="round" stroke-linejoin="round"/>
<path d="M72 64L76 68L72 72" stroke="#333333" stroke-width="2" stroke-linecap="round" stroke-linejoin="round"/>
<rect x="84" y="56" width="24" height="24" rx="4" stroke="#333333" stroke-width="2"/>
<path d="M96 56L96 44" stroke="#333333" stroke-width="2"/>
<path d="M96 80L96 92" stroke="#333333" stroke-width="2"/>
<path d="M84 68H72" stroke="#333333" stroke-width="2"/>
<path d="M108 68H120" stroke="#333333" stroke-width="2"/>
</svg>
